<svg width="26" height="26" viewBox="0 0 26 26" fill="none" xmlns="http://www.w3.org/2000/svg">
<path d="M25.1472 16.2547C26.9373 9.57388 22.9358 2.64306 16.2549 0.852931C9.57407 -0.937201 2.64326 3.06431 0.853123 9.74517C-0.77427 15.8187 2.28643 22.0092 7.81216 24.4662L10.0905 15.9633L7.05375 15.1496L7.9895 11.6574L11.0263 12.4711L11.7586 9.73798C12.5723 6.70122 14.8419 5.51922 17.575 6.25155C18.9415 6.61771 20.2267 7.28755 20.2267 7.28755L19.413 10.3243L17.8946 9.91746C16.3762 9.51061 15.6766 10.2996 15.4325 11.2106L14.8222 13.4882L18.1626 14.3832L16.6195 17.7128L13.7346 16.9398L11.4156 25.5945C17.7332 26.3109 23.5198 22.3283 25.1472 16.2547Z" fill="white"/>
</svg>
