<svg width="33" height="24" viewBox="0 0 33 24" fill="none" xmlns="http://www.w3.org/2000/svg">
<path d="M32.1617 6.17149C31.0017 6.51638 29.8999 6.51224 28.6194 6.47831C29.9871 5.98868 31.0555 5.09045 31.6456 3.75385C30.4566 4.27327 29.1469 4.41386 27.6585 4.52468C26.7602 3.2989 25.2674 2.33283 23.6583 2.06483C19.9038 1.4395 16.4618 4.45344 16.7744 8.09271C11.9762 7.1142 8.06322 4.13079 5.60517 0.134196C3.56009 2.48399 3.90176 5.94873 6.11411 8.11081C5.22018 7.96192 4.38437 7.464 3.54857 6.96607C3.11257 9.58386 4.6723 12.3547 7.23784 13.4994C6.31484 13.525 5.39183 13.5507 4.52697 13.2273C4.86425 15.6151 6.71903 17.7176 9.40084 18.1643C6.99379 19.3777 3.63029 19.7143 0.649038 18.859C3.06925 20.8763 5.93423 22.4297 9.1524 22.9657C20.0584 24.7821 27.6196 16.894 28.6281 8.6321C29.9959 8.14246 31.243 7.27401 32.1617 6.17149Z" fill="white"/>
</svg>
