<svg width="32" height="27" viewBox="0 0 32 27" fill="none" xmlns="http://www.w3.org/2000/svg">
<path d="M31.6058 12.2048C31.748 10.8771 31.2424 9.68272 30.1901 8.86061C28.3568 7.52411 19.687 4.01146 19.687 4.01146C19.687 4.01146 11.1872 0.567701 8.77064 0.18231C7.44292 0.0401749 6.24855 0.545773 5.42643 1.59799C4.19106 3.67019 2.40031 8.09009 2.40031 8.09009C2.40031 8.09009 0.609553 12.51 0.224162 14.9266C0.0820264 16.2543 0.58762 17.4486 1.63984 18.2708C3.47317 19.6072 12.143 23.1199 12.143 23.1199C12.143 23.1199 20.6427 26.5636 23.0593 26.949C24.387 27.0912 25.5814 26.5856 26.4036 25.5334C27.8089 23.53 29.5997 19.1101 29.5997 19.1101C29.5997 19.1101 31.3904 14.6902 31.6058 12.2048ZM11.627 16.578L14.933 8.4182L20.4199 15.3909L11.627 16.578Z" fill="white"/>
</svg>
